<svg width="80" height="70" viewBox="0 0 80 70" xmlns="http://www.w3.org/2000/svg">
  <!-- Left figure - suit -->
  <circle cx="17" cy="8" r="6" fill="none" stroke="#1A1A18" stroke-width="2" stroke-linecap="round"/>
  <path d="M 8 18 L 17 20 L 26 18 L 22 40 L 12 40 Z" stroke="#1A1A18" stroke-width="2" fill="none" stroke-linejoin="round"/>
  <path d="M 12 25 L 5 40" stroke="#1A1A18" stroke-width="2" stroke-linecap="round"/>
  <path d="M 22 25 L 29 40" stroke="#1A1A18" stroke-width="2" stroke-linecap="round"/>
  <path d="M 12 40 L 10 65" stroke="#1A1A18" stroke-width="2" stroke-linecap="round"/>
  <path d="M 22 40 L 24 65" stroke="#1A1A18" stroke-width="2" stroke-linecap="round"/>
  <!-- Right figure - gown -->
  <circle cx="63" cy="8" r="6" fill="none" stroke="#1A1A18" stroke-width="2" stroke-linecap="round"/>
  <path d="M 58 18 L 63 20 L 68 18 L 68 35 Q 63 50 55 65 L 71 65 Q 63 50 68 35 Z" stroke="#1A1A18" stroke-width="2" fill="none" stroke-linejoin="round" stroke-linecap="round"/>
  <path d="M 58 25 L 55 45" stroke="#1A1A18" stroke-width="2" stroke-linecap="round"/>
  <path d="M 68 25 L 71 45" stroke="#1A1A18" stroke-width="2" stroke-linecap="round"/>
</svg>
