<svg width="200" height="180" viewBox="0 0 200 180" xmlns="http://www.w3.org/2000/svg">
  <!-- Minimalist Single Line Art: Toronto Dog in Motion -->
  <path d="M 160 70 Q 180 40 185 10" stroke="#1A1A18" stroke-width="2.5" fill="none" stroke-linecap="round"/>
  <ellipse cx="100" cy="80" rx="50" ry="28" fill="none" stroke="#1A1A18" stroke-width="2.5" stroke-linecap="round"/>
  <path d="M 145 100 Q 155 95 160 85" stroke="#1A1A18" stroke-width="2.5" fill="none" stroke-linecap="round"/>
  <circle cx="50" cy="65" r="22" fill="none" stroke="#1A1A18" stroke-width="2.5" stroke-linecap="round"/>
  <path d="M 30 70 Q 20 68 15 75" stroke="#1A1A18" stroke-width="2.5" fill="none" stroke-linecap="round"/>
  <path d="M 40 45 Q 35 30 45 25" stroke="#1A1A18" stroke-width="2.5" fill="none" stroke-linecap="round"/>
  <path d="M 60 45 Q 65 30 55 25" stroke="#1A1A18" stroke-width="2.5" fill="none" stroke-linecap="round"/>
  <circle cx="45" cy="60" r="3" fill="none" stroke="#1A1A18" stroke-width="2" stroke-linecap="round"/>
  <circle cx="18" cy="73" r="2.5" fill="none" stroke="#1A1A18" stroke-width="2" stroke-linecap="round"/>
  <path d="M 75 105 L 70 150" stroke="#1A1A18" stroke-width="2.5" fill="none" stroke-linecap="round"/>
  <path d="M 70 150 L 65 165" stroke="#1A1A18" stroke-width="2.5" fill="none" stroke-linecap="round"/>
  <path d="M 95 110 L 105 160" stroke="#1A1A18" stroke-width="2.5" fill="none" stroke-linecap="round"/>
  <path d="M 105 160 L 110 175" stroke="#1A1A18" stroke-width="2.5" fill="none" stroke-linecap="round"/>
  <path d="M 130 105 L 115 155" stroke="#1A1A18" stroke-width="2.5" fill="none" stroke-linecap="round"/>
  <path d="M 115 155 L 110 170" stroke="#1A1A18" stroke-width="2.5" fill="none" stroke-linecap="round"/>
  <path d="M 150 105 L 155 150" stroke="#1A1A18" stroke-width="2.5" fill="none" stroke-linecap="round"/>
  <path d="M 155 150 L 160 165" stroke="#1A1A18" stroke-width="2.5" fill="none" stroke-linecap="round"/>
  <path d="M 70 80 Q 100 85 130 78" stroke="#1A1A18" stroke-width="1.5" fill="none" stroke-linecap="round" opacity="0.7"/>
</svg>
